<svg xmlns="http://www.w3.org/2000/svg" viewBox="0 0 57 57"><defs><style>.cls-1{font-size:27.53px;fill:#b05e4f;font-family:ArialRoundedMTBold, Arial Rounded MT Bold;}.cls-2{fill:#3b3b3b;}</style></defs><g id="Layer_3" data-name="Layer 3"><text class="cls-1" transform="matrix(0.96, 0.62, -0.59, 0.81, 18.23, 27.07)">N</text><path class="cls-2" d="M21.57,30.3a2.45,2.45,0,0,1-1.08-1.41,2.18,2.18,0,0,1,.34-1.76l.52-.87-5.3-9.61a21.43,21.43,0,0,0-1.76-2.79,2.16,2.16,0,0,0-1.73-.69A2.53,2.53,0,0,0,10,15.69a3.87,3.87,0,0,0,.36,1.48,24.5,24.5,0,0,0,1.25,2.37l6.68,11.23v9.4a4.19,4.19,0,0,0,.77,2.76,2.48,2.48,0,0,0,2,.9,2.51,2.51,0,0,0,2-.91,4.12,4.12,0,0,0,.79-2.75V30.55a2.8,2.8,0,0,1-.62.2A2.29,2.29,0,0,1,21.57,30.3Z"/></g></svg>